<mxfile host="65bd71144e">
    <diagram id="JJR6IB-rttZTOrWOc0L_" name="Page-1">
        <mxGraphModel dx="511" dy="140" grid="1" gridSize="10" guides="1" tooltips="1" connect="1" arrows="1" fold="1" page="0" pageScale="1" pageWidth="850" pageHeight="1100" background="none" math="0" shadow="0">
            <root>
                <mxCell id="0"/>
                <mxCell id="1" parent="0"/>
                <mxCell id="2" value="" style="rounded=0;whiteSpace=wrap;html=1;" parent="1" vertex="1">
                    <mxGeometry x="20" y="140" width="240" height="150" as="geometry"/>
                </mxCell>
                <mxCell id="34" value="" style="endArrow=classic;html=1;" parent="1" edge="1">
                    <mxGeometry width="50" height="50" relative="1" as="geometry">
                        <mxPoint x="170" y="180" as="sourcePoint"/>
                        <mxPoint x="170" y="240" as="targetPoint"/>
                    </mxGeometry>
                </mxCell>
                <mxCell id="46" value="" style="shape=table;startSize=0;container=1;collapsible=0;childLayout=tableLayout;shadow=0;strokeColor=none;strokeWidth=3;fillColor=none;swimlaneFillColor=default;" vertex="1" parent="1">
                    <mxGeometry x="50" y="165" width="100" height="100" as="geometry"/>
                </mxCell>
                <mxCell id="47" value="" style="shape=partialRectangle;collapsible=0;dropTarget=0;pointerEvents=0;fillColor=none;top=0;left=0;bottom=0;right=0;points=[[0,0.5],[1,0.5]];portConstraint=eastwest;shadow=1;strokeColor=#FFFFFF;strokeWidth=3;" vertex="1" parent="46">
                    <mxGeometry width="100" height="20" as="geometry"/>
                </mxCell>
                <mxCell id="48" value="11" style="shape=partialRectangle;html=1;whiteSpace=wrap;connectable=0;overflow=hidden;fillColor=none;top=0;left=0;bottom=0;right=0;pointerEvents=1;shadow=1;strokeColor=#FFFFFF;strokeWidth=3;" vertex="1" parent="47">
                    <mxGeometry width="20" height="20" as="geometry">
                        <mxRectangle width="20" height="20" as="alternateBounds"/>
                    </mxGeometry>
                </mxCell>
                <mxCell id="49" value="12" style="shape=partialRectangle;html=1;whiteSpace=wrap;connectable=0;overflow=hidden;fillColor=none;top=0;left=0;bottom=0;right=0;pointerEvents=1;shadow=1;strokeColor=#FFFFFF;strokeWidth=3;" vertex="1" parent="47">
                    <mxGeometry x="20" width="20" height="20" as="geometry">
                        <mxRectangle width="20" height="20" as="alternateBounds"/>
                    </mxGeometry>
                </mxCell>
                <mxCell id="50" value="13" style="shape=partialRectangle;html=1;whiteSpace=wrap;connectable=0;overflow=hidden;fillColor=none;top=0;left=0;bottom=0;right=0;pointerEvents=1;shadow=1;strokeColor=#FFFFFF;strokeWidth=3;" vertex="1" parent="47">
                    <mxGeometry x="40" width="20" height="20" as="geometry">
                        <mxRectangle width="20" height="20" as="alternateBounds"/>
                    </mxGeometry>
                </mxCell>
                <mxCell id="51" value="14" style="shape=partialRectangle;html=1;whiteSpace=wrap;connectable=0;overflow=hidden;fillColor=none;top=0;left=0;bottom=0;right=0;pointerEvents=1;shadow=1;strokeColor=#FFFFFF;strokeWidth=3;" vertex="1" parent="47">
                    <mxGeometry x="60" width="20" height="20" as="geometry">
                        <mxRectangle width="20" height="20" as="alternateBounds"/>
                    </mxGeometry>
                </mxCell>
                <mxCell id="52" value="15" style="shape=partialRectangle;html=1;whiteSpace=wrap;connectable=0;overflow=hidden;fillColor=none;top=0;left=0;bottom=0;right=0;pointerEvents=1;shadow=1;strokeColor=#FFFFFF;strokeWidth=3;" vertex="1" parent="47">
                    <mxGeometry x="80" width="20" height="20" as="geometry">
                        <mxRectangle width="20" height="20" as="alternateBounds"/>
                    </mxGeometry>
                </mxCell>
                <mxCell id="53" value="" style="shape=partialRectangle;collapsible=0;dropTarget=0;pointerEvents=0;fillColor=none;top=0;left=0;bottom=0;right=0;points=[[0,0.5],[1,0.5]];portConstraint=eastwest;shadow=1;strokeColor=#FFFFFF;strokeWidth=3;" vertex="1" parent="46">
                    <mxGeometry y="20" width="100" height="20" as="geometry"/>
                </mxCell>
                <mxCell id="54" value="21" style="shape=partialRectangle;html=1;whiteSpace=wrap;connectable=0;overflow=hidden;fillColor=none;top=0;left=0;bottom=0;right=0;pointerEvents=1;shadow=1;strokeColor=#FFFFFF;strokeWidth=3;" vertex="1" parent="53">
                    <mxGeometry width="20" height="20" as="geometry">
                        <mxRectangle width="20" height="20" as="alternateBounds"/>
                    </mxGeometry>
                </mxCell>
                <mxCell id="55" value="22" style="shape=partialRectangle;html=1;whiteSpace=wrap;connectable=0;overflow=hidden;fillColor=none;top=0;left=0;bottom=0;right=0;pointerEvents=1;shadow=1;strokeColor=#FFFFFF;strokeWidth=3;" vertex="1" parent="53">
                    <mxGeometry x="20" width="20" height="20" as="geometry">
                        <mxRectangle width="20" height="20" as="alternateBounds"/>
                    </mxGeometry>
                </mxCell>
                <mxCell id="56" value="23" style="shape=partialRectangle;html=1;whiteSpace=wrap;connectable=0;overflow=hidden;fillColor=none;top=0;left=0;bottom=0;right=0;pointerEvents=1;shadow=1;strokeColor=#FFFFFF;strokeWidth=3;" vertex="1" parent="53">
                    <mxGeometry x="40" width="20" height="20" as="geometry">
                        <mxRectangle width="20" height="20" as="alternateBounds"/>
                    </mxGeometry>
                </mxCell>
                <mxCell id="57" value="24" style="shape=partialRectangle;html=1;whiteSpace=wrap;connectable=0;overflow=hidden;fillColor=none;top=0;left=0;bottom=0;right=0;pointerEvents=1;shadow=1;strokeColor=#FFFFFF;strokeWidth=3;" vertex="1" parent="53">
                    <mxGeometry x="60" width="20" height="20" as="geometry">
                        <mxRectangle width="20" height="20" as="alternateBounds"/>
                    </mxGeometry>
                </mxCell>
                <mxCell id="58" value="25" style="shape=partialRectangle;html=1;whiteSpace=wrap;connectable=0;overflow=hidden;fillColor=none;top=0;left=0;bottom=0;right=0;pointerEvents=1;shadow=1;strokeColor=#FFFFFF;strokeWidth=3;" vertex="1" parent="53">
                    <mxGeometry x="80" width="20" height="20" as="geometry">
                        <mxRectangle width="20" height="20" as="alternateBounds"/>
                    </mxGeometry>
                </mxCell>
                <mxCell id="59" value="" style="shape=partialRectangle;collapsible=0;dropTarget=0;pointerEvents=0;fillColor=none;top=0;left=0;bottom=0;right=0;points=[[0,0.5],[1,0.5]];portConstraint=eastwest;shadow=1;strokeColor=#FFFFFF;strokeWidth=3;" vertex="1" parent="46">
                    <mxGeometry y="40" width="100" height="20" as="geometry"/>
                </mxCell>
                <mxCell id="60" value="31" style="shape=partialRectangle;html=1;whiteSpace=wrap;connectable=0;overflow=hidden;fillColor=none;top=0;left=0;bottom=0;right=0;pointerEvents=1;shadow=1;strokeColor=#FFFFFF;strokeWidth=3;" vertex="1" parent="59">
                    <mxGeometry width="20" height="20" as="geometry">
                        <mxRectangle width="20" height="20" as="alternateBounds"/>
                    </mxGeometry>
                </mxCell>
                <mxCell id="61" value="32" style="shape=partialRectangle;html=1;whiteSpace=wrap;connectable=0;overflow=hidden;fillColor=none;top=0;left=0;bottom=0;right=0;pointerEvents=1;shadow=1;strokeColor=#FFFFFF;strokeWidth=3;" vertex="1" parent="59">
                    <mxGeometry x="20" width="20" height="20" as="geometry">
                        <mxRectangle width="20" height="20" as="alternateBounds"/>
                    </mxGeometry>
                </mxCell>
                <mxCell id="62" value="33" style="shape=partialRectangle;html=1;whiteSpace=wrap;connectable=0;overflow=hidden;fillColor=none;top=0;left=0;bottom=0;right=0;pointerEvents=1;shadow=1;strokeColor=#FFFFFF;strokeWidth=3;" vertex="1" parent="59">
                    <mxGeometry x="40" width="20" height="20" as="geometry">
                        <mxRectangle width="20" height="20" as="alternateBounds"/>
                    </mxGeometry>
                </mxCell>
                <mxCell id="63" value="34" style="shape=partialRectangle;html=1;whiteSpace=wrap;connectable=0;overflow=hidden;fillColor=none;top=0;left=0;bottom=0;right=0;pointerEvents=1;shadow=1;strokeColor=#FFFFFF;strokeWidth=3;" vertex="1" parent="59">
                    <mxGeometry x="60" width="20" height="20" as="geometry">
                        <mxRectangle width="20" height="20" as="alternateBounds"/>
                    </mxGeometry>
                </mxCell>
                <mxCell id="64" value="35" style="shape=partialRectangle;html=1;whiteSpace=wrap;connectable=0;overflow=hidden;fillColor=none;top=0;left=0;bottom=0;right=0;pointerEvents=1;shadow=1;strokeColor=#FFFFFF;strokeWidth=3;" vertex="1" parent="59">
                    <mxGeometry x="80" width="20" height="20" as="geometry">
                        <mxRectangle width="20" height="20" as="alternateBounds"/>
                    </mxGeometry>
                </mxCell>
                <mxCell id="65" value="" style="shape=partialRectangle;collapsible=0;dropTarget=0;pointerEvents=0;fillColor=none;top=0;left=0;bottom=0;right=0;points=[[0,0.5],[1,0.5]];portConstraint=eastwest;shadow=1;strokeColor=#FFFFFF;strokeWidth=3;" vertex="1" parent="46">
                    <mxGeometry y="60" width="100" height="20" as="geometry"/>
                </mxCell>
                <mxCell id="66" value="41" style="shape=partialRectangle;html=1;whiteSpace=wrap;connectable=0;overflow=hidden;fillColor=none;top=0;left=0;bottom=0;right=0;pointerEvents=1;shadow=1;strokeColor=#FFFFFF;strokeWidth=3;" vertex="1" parent="65">
                    <mxGeometry width="20" height="20" as="geometry">
                        <mxRectangle width="20" height="20" as="alternateBounds"/>
                    </mxGeometry>
                </mxCell>
                <mxCell id="67" value="42" style="shape=partialRectangle;html=1;whiteSpace=wrap;connectable=0;overflow=hidden;fillColor=none;top=0;left=0;bottom=0;right=0;pointerEvents=1;shadow=1;strokeColor=#FFFFFF;strokeWidth=3;" vertex="1" parent="65">
                    <mxGeometry x="20" width="20" height="20" as="geometry">
                        <mxRectangle width="20" height="20" as="alternateBounds"/>
                    </mxGeometry>
                </mxCell>
                <mxCell id="68" value="43" style="shape=partialRectangle;html=1;whiteSpace=wrap;connectable=0;overflow=hidden;fillColor=none;top=0;left=0;bottom=0;right=0;pointerEvents=1;shadow=1;strokeColor=#FFFFFF;strokeWidth=3;" vertex="1" parent="65">
                    <mxGeometry x="40" width="20" height="20" as="geometry">
                        <mxRectangle width="20" height="20" as="alternateBounds"/>
                    </mxGeometry>
                </mxCell>
                <mxCell id="69" value="44" style="shape=partialRectangle;html=1;whiteSpace=wrap;connectable=0;overflow=hidden;fillColor=none;top=0;left=0;bottom=0;right=0;pointerEvents=1;shadow=1;strokeColor=#FFFFFF;strokeWidth=3;" vertex="1" parent="65">
                    <mxGeometry x="60" width="20" height="20" as="geometry">
                        <mxRectangle width="20" height="20" as="alternateBounds"/>
                    </mxGeometry>
                </mxCell>
                <mxCell id="70" value="45" style="shape=partialRectangle;html=1;whiteSpace=wrap;connectable=0;overflow=hidden;fillColor=none;top=0;left=0;bottom=0;right=0;pointerEvents=1;shadow=1;strokeColor=#FFFFFF;strokeWidth=3;" vertex="1" parent="65">
                    <mxGeometry x="80" width="20" height="20" as="geometry">
                        <mxRectangle width="20" height="20" as="alternateBounds"/>
                    </mxGeometry>
                </mxCell>
                <mxCell id="71" value="" style="shape=partialRectangle;collapsible=0;dropTarget=0;pointerEvents=0;fillColor=none;top=0;left=0;bottom=0;right=0;points=[[0,0.5],[1,0.5]];portConstraint=eastwest;shadow=1;strokeColor=#FFFFFF;strokeWidth=3;" vertex="1" parent="46">
                    <mxGeometry y="80" width="100" height="20" as="geometry"/>
                </mxCell>
                <mxCell id="72" value="51" style="shape=partialRectangle;html=1;whiteSpace=wrap;connectable=0;overflow=hidden;fillColor=none;top=0;left=0;bottom=0;right=0;pointerEvents=1;shadow=1;strokeColor=#FFFFFF;strokeWidth=3;" vertex="1" parent="71">
                    <mxGeometry width="20" height="20" as="geometry">
                        <mxRectangle width="20" height="20" as="alternateBounds"/>
                    </mxGeometry>
                </mxCell>
                <mxCell id="73" value="52" style="shape=partialRectangle;html=1;whiteSpace=wrap;connectable=0;overflow=hidden;fillColor=none;top=0;left=0;bottom=0;right=0;pointerEvents=1;shadow=1;strokeColor=#FFFFFF;strokeWidth=3;" vertex="1" parent="71">
                    <mxGeometry x="20" width="20" height="20" as="geometry">
                        <mxRectangle width="20" height="20" as="alternateBounds"/>
                    </mxGeometry>
                </mxCell>
                <mxCell id="74" value="53" style="shape=partialRectangle;html=1;whiteSpace=wrap;connectable=0;overflow=hidden;fillColor=none;top=0;left=0;bottom=0;right=0;pointerEvents=1;shadow=1;strokeColor=#FFFFFF;strokeWidth=3;" vertex="1" parent="71">
                    <mxGeometry x="40" width="20" height="20" as="geometry">
                        <mxRectangle width="20" height="20" as="alternateBounds"/>
                    </mxGeometry>
                </mxCell>
                <mxCell id="75" value="54" style="shape=partialRectangle;html=1;whiteSpace=wrap;connectable=0;overflow=hidden;fillColor=none;top=0;left=0;bottom=0;right=0;pointerEvents=1;shadow=1;strokeColor=#FFFFFF;strokeWidth=3;" vertex="1" parent="71">
                    <mxGeometry x="60" width="20" height="20" as="geometry">
                        <mxRectangle width="20" height="20" as="alternateBounds"/>
                    </mxGeometry>
                </mxCell>
                <mxCell id="76" value="55" style="shape=partialRectangle;html=1;whiteSpace=wrap;connectable=0;overflow=hidden;fillColor=none;top=0;left=0;bottom=0;right=0;pointerEvents=1;shadow=1;strokeColor=#FFFFFF;strokeWidth=3;" vertex="1" parent="71">
                    <mxGeometry x="80" width="20" height="20" as="geometry">
                        <mxRectangle width="20" height="20" as="alternateBounds"/>
                    </mxGeometry>
                </mxCell>
                <mxCell id="82" value="" style="rounded=0;whiteSpace=wrap;html=1;shadow=0;strokeColor=default;strokeWidth=3;fillColor=none;" vertex="1" parent="1">
                    <mxGeometry x="50" y="165" width="100" height="95" as="geometry"/>
                </mxCell>
                <mxCell id="36" value="" style="rounded=0;whiteSpace=wrap;html=1;shadow=0;strokeColor=#2D7600;fillColor=none;fontColor=#ffffff;strokeWidth=2;" vertex="1" parent="1">
                    <mxGeometry x="50" y="225" width="60" height="60" as="geometry"/>
                </mxCell>
                <mxCell id="35" value="" style="rounded=0;whiteSpace=wrap;html=1;shadow=0;strokeColor=#FF0000;fillColor=none;strokeWidth=2;" vertex="1" parent="1">
                    <mxGeometry x="50" y="165" width="60" height="60" as="geometry"/>
                </mxCell>
            </root>
        </mxGraphModel>
    </diagram>
</mxfile>